<svg width="315" height="65" viewBox="0 0 315 65" fill="none" xmlns="http://www.w3.org/2000/svg">
<path fill-rule="evenodd" clip-rule="evenodd" d="M141.387 0.613205C155.324 0.613205 166.625 11.568 166.625 25.0763C166.625 38.5853 155.324 49.5401 141.387 49.5401C127.449 49.5401 116.147 38.5853 116.147 25.0763C116.147 11.568 127.449 0.613205 141.387 0.613205Z" stroke="#801818" stroke-width="0.3528" stroke-miterlimit="22.9256"/>
<path fill-rule="evenodd" clip-rule="evenodd" d="M246.559 35.994C245.906 34.9201 245.375 33.2133 245.305 30.2256L249.454 30.2357C252.336 30.2432 254.591 30.1917 256.214 30.0658C257.123 29.996 258.079 29.8375 259.081 29.5984L259.128 28.2527C259.128 25.4047 258.342 23.1928 256.773 21.6086C255.204 20.0252 253.075 19.2256 250.387 19.2186C248.615 19.2142 246.782 19.7389 244.902 20.7845C243.022 21.8225 241.732 22.9631 241.033 24.1912C239.968 26.0552 239.44 28.2722 239.44 30.8239C239.44 34.1626 240.387 36.8188 242.276 38.7766C244.164 40.735 246.65 41.7139 249.726 41.7221C251.14 41.7259 252.517 41.5485 253.844 41.188C254.853 40.9142 255.795 40.2467 256.719 39.5924C257.017 39.3808 257.314 39.1705 257.611 38.9754C257.942 38.5677 258.213 38.1022 258.467 37.6435L257.815 37.0773C256.78 37.792 255.63 38.0795 254.935 38.2255C253.854 38.4519 253.05 38.5155 251.985 38.513C249.616 38.5067 247.662 37.8109 246.559 35.994ZM250.722 28.9561C248.759 28.9561 246.963 28.9071 245.334 28.814C245.356 26.4013 245.722 24.6241 246.426 23.4822C247.125 22.3397 248.066 21.7616 249.243 21.7616C250.002 21.7616 250.669 21.9906 251.244 22.4473C251.819 22.8971 252.228 23.4677 252.459 24.1459C252.824 25.2525 253.007 26.4158 253.007 27.6432V28.814C252.271 28.9071 251.513 28.9561 250.722 28.9561Z" fill="#801818"/>
<path d="M245.305 30.2256L245.305 30.1875L245.266 30.1874L245.267 30.2265L245.305 30.2256ZM246.559 35.994L246.591 35.9742L246.591 35.9742L246.559 35.994ZM249.454 30.2357L249.455 30.1976H249.455L249.454 30.2357ZM256.214 30.0658L256.211 30.0279L256.211 30.0279L256.214 30.0658ZM259.081 29.5984L259.09 29.6355L259.118 29.6287L259.119 29.5997L259.081 29.5984ZM259.128 28.2527L259.166 28.254V28.2527H259.128ZM256.773 21.6086L256.8 21.5818L256.8 21.5818L256.773 21.6086ZM250.387 19.2186L250.387 19.1805L250.387 19.1805L250.387 19.2186ZM244.902 20.7845L244.92 20.8179L244.92 20.8178L244.902 20.7845ZM241.033 24.1912L241.066 24.2101L241.066 24.21L241.033 24.1912ZM242.276 38.7766L242.303 38.7501L242.303 38.7501L242.276 38.7766ZM249.726 41.7221L249.727 41.684H249.727L249.726 41.7221ZM253.844 41.188L253.834 41.1512L253.834 41.1512L253.844 41.188ZM256.719 39.5924L256.697 39.5614L256.719 39.5924ZM257.611 38.9754L257.633 39.0088L257.64 38.9994L257.611 38.9754ZM258.467 37.6435L258.501 37.662L258.516 37.635L258.492 37.6148L258.467 37.6435ZM257.815 37.0773L257.84 37.0486L257.818 37.0292L257.794 37.046L257.815 37.0773ZM254.935 38.2255L254.943 38.2627L254.943 38.2627L254.935 38.2255ZM251.985 38.513L251.985 38.5511H251.985L251.985 38.513ZM245.334 28.814L245.296 28.8136L245.296 28.8499L245.332 28.852L245.334 28.814ZM246.426 23.4822L246.458 23.5022L246.458 23.5021L246.426 23.4822ZM251.244 22.4473L251.22 22.4772L251.221 22.4773L251.244 22.4473ZM252.459 24.1459L252.495 24.134L252.495 24.1336L252.459 24.1459ZM253.007 28.814L253.012 28.8518L253.045 28.8475V28.814H253.007ZM245.267 30.2265C245.337 33.218 245.869 34.9321 246.526 36.0138L246.591 35.9742C245.943 34.9081 245.413 33.2086 245.343 30.2247L245.267 30.2265ZM249.455 30.1976L245.305 30.1875L245.305 30.2637L249.454 30.2738L249.455 30.1976ZM256.211 30.0279C254.589 30.1536 252.336 30.2051 249.455 30.1976L249.454 30.2738C252.336 30.2813 254.592 30.2298 256.217 30.1038L256.211 30.0279ZM259.072 29.5614C258.071 29.8 257.118 29.9582 256.211 30.0279L256.217 30.1038C257.128 30.0338 258.086 29.8749 259.09 29.6355L259.072 29.5614ZM259.09 28.2514L259.043 29.5971L259.119 29.5997L259.166 28.254L259.09 28.2514ZM256.746 21.6355C258.306 23.2106 259.089 25.4119 259.089 28.2527H259.166C259.166 25.3976 258.378 23.1749 256.8 21.5818L256.746 21.6355ZM250.386 19.2567C253.067 19.2636 255.185 20.0606 256.746 21.6355L256.8 21.5818C255.222 19.9897 253.083 19.1875 250.387 19.1805L250.386 19.2567ZM244.92 20.8178C246.796 19.7747 248.623 19.2524 250.386 19.2567L250.387 19.1805C248.608 19.1761 246.768 19.7031 244.883 20.7512L244.92 20.8178ZM241.066 24.21C241.76 22.9904 243.044 21.8541 244.92 20.8179L244.883 20.7511C243 21.791 241.703 22.9359 240.999 24.1723L241.066 24.21ZM239.478 30.8239C239.478 28.2775 240.005 26.0673 241.066 24.2101L240.999 24.1723C239.931 26.0432 239.402 28.2669 239.402 30.8239H239.478ZM242.303 38.7501C240.423 36.801 239.478 34.1551 239.478 30.8239H239.402C239.402 34.1701 240.352 36.8366 242.248 38.803L242.303 38.7501ZM249.727 41.684C246.659 41.6758 244.183 40.7001 242.303 38.7501L242.248 38.803C244.144 40.7699 246.641 41.752 249.726 41.7602L249.727 41.684ZM253.834 41.1512C252.51 41.5108 251.137 41.6878 249.727 41.684L249.726 41.7602C251.144 41.764 252.523 41.5861 253.854 41.2247L253.834 41.1512ZM256.697 39.5614C255.772 40.2166 254.836 40.8795 253.834 41.1512L253.854 41.2247C254.871 40.9488 255.819 40.2768 256.741 39.6235L256.697 39.5614ZM257.59 38.9436C257.293 39.1391 256.995 39.3498 256.697 39.5614L256.741 39.6235C257.04 39.4118 257.336 39.2019 257.632 39.0072L257.59 38.9436ZM258.434 37.625C258.18 38.0835 257.91 38.5465 257.581 38.9514L257.64 38.9994C257.974 38.5889 258.246 38.1208 258.501 37.662L258.434 37.625ZM257.79 37.1061L258.442 37.6723L258.492 37.6148L257.84 37.0486L257.79 37.1061ZM254.943 38.2627C255.639 38.1165 256.795 37.8278 257.837 37.1087L257.794 37.046C256.764 37.7562 255.62 38.0425 254.927 38.1882L254.943 38.2627ZM251.985 38.5511C253.052 38.5536 253.859 38.4899 254.943 38.2627L254.927 38.1882C253.85 38.414 253.048 38.4774 251.985 38.4749L251.985 38.5511ZM246.526 36.0138C247.639 37.8466 249.609 38.5448 251.985 38.5511L251.985 38.4749C249.623 38.4686 247.685 37.7751 246.591 35.9742L246.526 36.0138ZM245.332 28.852C246.962 28.9452 248.759 28.9942 250.722 28.9942V28.918C248.76 28.918 246.965 28.869 245.336 28.7759L245.332 28.852ZM246.393 23.4622C245.684 24.613 245.318 26.3987 245.296 28.8136L245.372 28.8143C245.394 26.4039 245.76 24.6351 246.458 23.5022L246.393 23.4622ZM249.243 21.7235C248.05 21.7235 247.098 22.3105 246.393 23.4623L246.458 23.5021C247.152 22.369 248.081 21.7997 249.243 21.7997V21.7235ZM251.268 22.4175C250.685 21.9552 250.01 21.7235 249.243 21.7235V21.7997C249.993 21.7997 250.652 22.0259 251.22 22.4772L251.268 22.4175ZM252.495 24.1336C252.261 23.4483 251.848 22.8716 251.268 22.4173L251.221 22.4773C251.79 22.9227 252.194 23.4872 252.423 24.1582L252.495 24.1336ZM253.045 27.6432C253.045 26.4119 252.862 25.2446 252.495 24.134L252.423 24.1579C252.787 25.2604 252.969 26.4196 252.969 27.6432H253.045ZM253.045 28.814V27.6432H252.969V28.814H253.045ZM250.722 28.9942C251.514 28.9942 252.274 28.9451 253.012 28.8518L253.002 28.7762C252.268 28.8691 251.511 28.918 250.722 28.918V28.9942Z" fill="#801818"/>
<path d="M171.21 19.3394C171.667 19.055 176.026 18.7241 178.541 20.8732C179.671 21.8389 180.461 23.7929 182.66 27.4078C184.606 24.814 186.583 22.0358 188.606 19.0664C189.188 19.1582 189.679 19.2041 190.07 19.2041C190.384 19.2041 191.035 19.1582 192.039 19.0664V20.3938C191.234 20.4397 190.585 20.6794 190.085 21.1154C189.283 21.815 186.688 24.6976 183.202 29.041C184.781 31.3807 187.93 37.0219 190.533 38.4488C190.893 38.6457 191.574 38.7482 192.348 38.7482L192.38 41.6334C188.742 41.8869 186.242 41.7925 184.107 39.1182C183.778 38.7055 183.149 37.8467 180.168 33.3649C177.699 36.3903 175.717 41.6938 171.385 41.656L169.103 41.6359L169.122 38.8313C169.889 38.8313 171.38 38.9936 171.656 38.8577C171.923 38.7262 173.806 37.9153 175.006 36.5784C176.739 34.6477 177.359 33.9808 179.121 31.7481C177.207 28.89 175.424 21.8546 171.206 22.0308L171.21 19.3394Z" fill="#801818" stroke="#801818" stroke-width="0.0762" stroke-miterlimit="22.9256"/>
<path fill-rule="evenodd" clip-rule="evenodd" d="M208.221 18.9752C205.604 18.9752 203.361 19.944 201.512 21.8704V19.4068H197.324L197.274 53.4759H202.956L202.905 40.0864C204.099 40.3399 205.376 40.5369 207.909 40.5369C209.337 40.5369 210.669 40.2846 211.882 39.7681C213.105 39.2528 214.15 38.5155 215.05 37.5574C215.938 36.5992 216.622 35.4517 217.114 34.0935C217.607 32.7352 217.858 31.2197 217.858 29.5557C217.858 27.9552 217.642 26.4925 217.21 25.1864C216.778 23.881 216.142 22.7757 215.325 21.8597C214.51 20.9437 213.502 20.2385 212.301 19.7333C211.113 19.2275 209.745 18.9752 208.221 18.9752ZM207.188 38.1079C205.017 38.1082 204.101 38.1083 202.723 37.5247V37.4297L202.706 24.8122C204.379 22.7477 205.124 22.7571 206.875 22.7794C207.069 22.7819 207.274 22.7845 207.495 22.7845C209.272 22.7845 210.631 23.4168 211.583 24.67C212.535 25.9232 213.012 27.7973 213.012 30.2829C213.012 32.912 212.512 34.8679 211.502 36.1614C210.492 37.4561 209.097 38.1079 207.333 38.1079C207.284 38.1079 207.236 38.1079 207.188 38.1079Z" fill="#801818"/>
<path d="M201.512 21.8704H201.473V21.9651L201.539 21.8968L201.512 21.8704ZM201.512 19.4068H201.55V19.3687H201.512V19.4068ZM197.324 19.4068V19.3687H197.286L197.286 19.4067L197.324 19.4068ZM197.274 53.4759L197.235 53.4758L197.235 53.514H197.274V53.4759ZM202.956 53.4759V53.514H202.994L202.994 53.4757L202.956 53.4759ZM202.905 40.0864L202.913 40.0491L202.867 40.0393L202.867 40.0866L202.905 40.0864ZM211.882 39.7681L211.867 39.733L211.867 39.733L211.882 39.7681ZM215.05 37.5574L215.077 37.5834L215.077 37.5833L215.05 37.5574ZM217.114 34.0935L217.15 34.1064L217.114 34.0935ZM217.21 25.1864L217.246 25.1745L217.246 25.1745L217.21 25.1864ZM215.325 21.8597L215.297 21.885L215.297 21.885L215.325 21.8597ZM212.301 19.7333L212.286 19.7683L212.286 19.7684L212.301 19.7333ZM202.723 37.5247H202.685V37.5499L202.708 37.5598L202.723 37.5247ZM207.188 38.1079L207.188 38.0698L207.188 38.1079ZM202.723 37.4297H202.761L202.761 37.4296L202.723 37.4297ZM202.706 24.8122L202.677 24.7882L202.668 24.7987L202.668 24.8122L202.706 24.8122ZM206.875 22.7794L206.875 22.8175L206.875 22.7794ZM211.583 24.67L211.613 24.6469L211.583 24.67ZM211.502 36.1614L211.472 36.138L211.472 36.138L211.502 36.1614ZM201.539 21.8968C203.381 19.9777 205.615 19.0133 208.221 19.0133V18.9371C205.594 18.9371 203.34 19.9103 201.484 21.844L201.539 21.8968ZM201.473 19.4068V21.8704H201.55V19.4068H201.473ZM197.324 19.4449H201.512V19.3687H197.324V19.4449ZM197.312 53.4759L197.362 19.4068L197.286 19.4067L197.235 53.4758L197.312 53.4759ZM202.956 53.4378H197.274V53.514H202.956V53.4378ZM202.867 40.0866L202.917 53.476L202.994 53.4757L202.943 40.0863L202.867 40.0866ZM207.909 40.4988C205.379 40.4988 204.104 40.3021 202.913 40.0491L202.897 40.1237C204.094 40.3778 205.374 40.575 207.909 40.575V40.4988ZM211.867 39.733C210.659 40.2473 209.332 40.4988 207.909 40.4988V40.575C209.341 40.575 210.679 40.3219 211.897 39.8031L211.867 39.733ZM215.022 37.5313C214.126 38.4857 213.086 39.2198 211.867 39.733L211.897 39.8032C213.125 39.2858 214.174 38.5454 215.077 37.5834L215.022 37.5313ZM217.078 34.0805C216.587 35.4345 215.906 36.5774 215.022 37.5315L215.077 37.5833C215.969 36.621 216.656 35.469 217.15 34.1064L217.078 34.0805ZM217.82 29.5557C217.82 31.2158 217.569 32.7269 217.078 34.0805L217.15 34.1064C217.644 32.7435 217.896 31.2235 217.896 29.5557H217.82ZM217.174 25.1984C217.605 26.5 217.82 27.9586 217.82 29.5557H217.896C217.896 27.9518 217.68 26.485 217.246 25.1745L217.174 25.1984ZM215.297 21.885C216.11 22.7969 216.743 23.8976 217.174 25.1984L217.246 25.1745C216.813 23.8644 216.174 22.7545 215.354 21.8343L215.297 21.885ZM212.286 19.7684C213.482 20.2716 214.486 20.9736 215.297 21.885L215.354 21.8344C214.534 20.9138 213.521 20.2054 212.316 19.6982L212.286 19.7684ZM208.221 19.0133C209.741 19.0133 211.104 19.2649 212.286 19.7683L212.316 19.6982C211.122 19.1901 209.749 18.9371 208.221 18.9371V19.0133ZM202.708 37.5598C204.094 38.1468 205.017 38.1463 207.188 38.146L207.188 38.0698C205.016 38.0701 204.107 38.0698 202.738 37.4896L202.708 37.5598ZM202.685 37.4297V37.5247H202.761V37.4297H202.685ZM202.668 24.8122L202.685 37.4298L202.761 37.4296L202.744 24.8121L202.668 24.8122ZM206.876 22.7413C206.002 22.7302 205.37 22.7216 204.747 22.978C204.124 23.2346 203.514 23.7545 202.677 24.7882L202.736 24.8362C203.571 23.8053 204.171 23.2977 204.776 23.0485C205.382 22.7991 205.997 22.8064 206.875 22.8175L206.876 22.7413ZM207.495 22.7464C207.275 22.7464 207.069 22.7438 206.876 22.7413L206.875 22.8175C207.068 22.82 207.274 22.8226 207.495 22.8226V22.7464ZM211.613 24.6469C210.653 23.383 209.282 22.7464 207.495 22.7464V22.8226C209.262 22.8226 210.608 23.4505 211.553 24.693L211.613 24.6469ZM213.05 30.2829C213.05 27.7935 212.573 25.9096 211.613 24.6469L211.553 24.693C212.498 25.9367 212.974 27.8011 212.974 30.2829H213.05ZM211.532 36.1849C212.55 34.8817 213.05 32.9157 213.05 30.2829H212.974C212.974 32.9083 212.475 34.8542 211.472 36.138L211.532 36.1849ZM207.333 38.146C209.108 38.146 210.514 37.4896 211.532 36.1848L211.472 36.138C210.47 37.4227 209.087 38.0698 207.333 38.0698V38.146ZM207.188 38.146C207.236 38.146 207.284 38.146 207.333 38.146V38.0698C207.284 38.0698 207.236 38.0698 207.188 38.0698L207.188 38.146Z" fill="#801818"/>
<path d="M236.503 23.1028C235.819 22.9405 235.942 22.8581 234.661 22.8581C232.189 22.8581 231.15 23.7671 229.388 25.8527L229.376 41.5529L223.456 41.5227L223.577 19.1828L229.437 19.2042L229.381 22.2963C231.415 19.9207 232.715 19.0475 235.407 19.0475C236.09 19.0475 235.729 18.9796 236.51 19.0928L236.503 23.1028Z" fill="#801818" stroke="#801818" stroke-width="0.0762" stroke-miterlimit="22.9256"/>
<path d="M264.266 40.4129V36.8465C266.799 38.1047 269.002 38.737 270.884 38.737C271.985 38.737 272.906 38.4344 273.644 37.8292C274.39 37.2233 274.76 36.4696 274.76 35.5681C274.76 35.0032 274.578 34.4514 274.209 33.9129C273.84 33.3681 272.993 32.8226 271.669 32.2709L269.406 31.309C267.659 30.5893 266.383 29.7482 265.583 28.7856C264.784 27.8375 264.381 26.68 264.381 25.294C264.381 23.5778 265.005 22.1453 266.248 21.0016C267.498 19.8572 269.345 19.2854 271.784 19.2854C272.979 19.2854 274.458 19.447 276.218 19.7767L277.024 19.9384V23.1683C274.86 22.5284 273.134 22.2057 271.844 22.2057C270.595 22.2057 269.668 22.475 269.05 23.0129C268.431 23.5514 268.122 24.1906 268.122 24.9241C268.122 25.5023 268.33 26.0207 268.754 26.478C269.157 26.9555 269.896 27.4204 270.957 27.8772L272.825 28.6718C275.337 29.7343 276.929 30.7843 277.615 31.8205C278.293 32.8566 278.636 33.9865 278.636 35.2114C278.636 36.3822 278.32 37.4655 277.682 38.4614C277.044 39.4636 276.103 40.2443 274.867 40.8093C273.624 41.3742 272.247 41.6573 270.722 41.6573C268.949 41.6573 266.799 41.2402 264.266 40.4129Z" fill="#801818" stroke="#801818" stroke-width="0.0762" stroke-miterlimit="22.9256"/>
<path fill-rule="evenodd" clip-rule="evenodd" d="M88.4294 4.59489L88.5865 41.8454H92.0952L96.6076 41.8039L99.0234 41.7794C101.908 41.7504 104.189 40.9458 105.861 38.6156C107.531 36.2891 108.367 33.382 108.367 29.9017C108.367 26.6856 107.626 24.0723 106.151 22.0692C104.678 20.0655 102.587 19.0601 99.8883 19.0601C98.2621 19.0601 96.7351 19.3011 95.6315 20.2177C95.0763 20.6795 95.0763 20.6795 95.0231 20.7251C94.97 20.7707 94.8637 20.8619 94.0958 21.5061L94.2201 4.59489H88.4294ZM98.0648 37.6913L94.3074 37.6806L94.3043 24.4824C95.0097 23.978 95.0702 23.8947 95.1464 23.8298C95.2113 23.7745 95.2877 23.7327 95.7841 23.4551C96.8639 22.8524 97.9505 22.5542 99.051 22.5542C100.774 22.5542 102.054 23.2544 102.878 24.6473C103.702 26.0408 104.11 27.9262 104.11 30.3106C104.11 35.1881 102.797 37.7014 98.0648 37.6913Z" fill="#801818"/>
<path d="M88.5865 41.8454L88.5484 41.8456L88.5485 41.8835H88.5865V41.8454ZM88.4294 4.59489V4.55679H88.3912L88.3913 4.59506L88.4294 4.59489ZM92.0952 41.8454V41.8835L92.0955 41.8835L92.0952 41.8454ZM96.6076 41.8039L96.608 41.842H96.608L96.6076 41.8039ZM99.0234 41.7794L99.023 41.7413H99.023L99.0234 41.7794ZM105.861 38.6156L105.83 38.5933H105.83L105.861 38.6156ZM106.151 22.0692L106.121 22.0918L106.121 22.0918L106.151 22.0692ZM95.6315 20.2177L95.6072 20.1884L95.6072 20.1884L95.6315 20.2177ZM95.0231 20.7251L94.9983 20.6962H94.9983L95.0231 20.7251ZM94.0958 21.5061L94.0577 21.5058L94.057 21.5883L94.1202 21.5353L94.0958 21.5061ZM94.2201 4.59489L94.2582 4.59517L94.2585 4.55679H94.2201V4.59489ZM94.3074 37.6806L94.2693 37.6807L94.2693 37.7186L94.3073 37.7187L94.3074 37.6806ZM98.0648 37.6913L98.0647 37.7294H98.0648L98.0648 37.6913ZM94.3043 24.4824L94.2821 24.4514L94.2662 24.4628L94.2662 24.4824L94.3043 24.4824ZM95.1464 23.8298L95.1711 23.8588L95.1711 23.8588L95.1464 23.8298ZM95.7841 23.4551L95.7656 23.4218L95.7655 23.4218L95.7841 23.4551ZM102.878 24.6473L102.911 24.6279L102.911 24.6279L102.878 24.6473ZM88.6246 41.8453L88.4675 4.59473L88.3913 4.59506L88.5484 41.8456L88.6246 41.8453ZM92.0952 41.8073H88.5865V41.8835H92.0952V41.8073ZM96.6073 41.7658L92.0948 41.8073L92.0955 41.8835L96.608 41.842L96.6073 41.7658ZM99.023 41.7413L96.6072 41.7658L96.608 41.842L99.0238 41.8175L99.023 41.7413ZM105.83 38.5933C104.167 40.9108 101.9 41.7124 99.023 41.7413L99.0238 41.8175C101.917 41.7884 104.211 40.9808 105.892 38.6378L105.83 38.5933ZM108.329 29.9017C108.329 33.3757 107.494 36.2746 105.83 38.5933L105.892 38.6378C107.567 36.3035 108.405 33.3882 108.405 29.9017H108.329ZM106.121 22.0918C107.589 24.0867 108.329 26.6914 108.329 29.9017H108.405C108.405 26.6799 107.663 24.0579 106.182 22.0466L106.121 22.0918ZM99.8883 19.0982C102.576 19.0982 104.655 20.0987 106.121 22.0918L106.182 22.0466C104.701 20.0322 102.598 19.022 99.8883 19.022V19.0982ZM95.6559 20.247C96.7488 19.3393 98.2642 19.0982 99.8883 19.0982V19.022C98.26 19.022 96.7215 19.2629 95.6072 20.1884L95.6559 20.247ZM95.0479 20.754C95.1008 20.7086 95.1004 20.7089 95.6559 20.247L95.6072 20.1884C95.0521 20.65 95.0517 20.6503 94.9983 20.6962L95.0479 20.754ZM94.1202 21.5353C94.8881 20.8911 94.9946 20.7998 95.0479 20.754L94.9983 20.6962C94.9453 20.7416 94.8392 20.8327 94.0713 21.4769L94.1202 21.5353ZM94.182 4.59461L94.0577 21.5058L94.1339 21.5064L94.2582 4.59517L94.182 4.59461ZM88.4294 4.63299H94.2201V4.55679H88.4294V4.63299ZM94.3073 37.7187L98.0647 37.7294L98.065 37.6532L94.3075 37.6425L94.3073 37.7187ZM94.2662 24.4824L94.2693 37.6807L94.3455 37.6806L94.3424 24.4824L94.2662 24.4824ZM95.1217 23.8008C95.0791 23.837 95.0513 23.8687 94.9372 23.9618C94.8253 24.053 94.6345 24.1994 94.2821 24.4514L94.3264 24.5134C94.6794 24.261 94.8716 24.1135 94.9854 24.0208C95.0969 23.9299 95.1375 23.8874 95.1711 23.8588L95.1217 23.8008ZM95.7655 23.4218C95.5175 23.5605 95.3739 23.6406 95.2842 23.6929C95.1945 23.7453 95.1568 23.7709 95.1217 23.8008L95.1711 23.8588C95.2009 23.8334 95.2339 23.8105 95.3226 23.7587C95.4115 23.7069 95.5543 23.6273 95.8027 23.4883L95.7655 23.4218ZM99.051 22.5161C97.9433 22.5161 96.8503 22.8163 95.7656 23.4218L95.8027 23.4884C96.8774 22.8885 97.9578 22.5923 99.051 22.5923V22.5161ZM102.911 24.6279C102.079 23.2225 100.786 22.5161 99.051 22.5161V22.5923C100.762 22.5923 102.029 23.2863 102.845 24.6667L102.911 24.6279ZM104.148 30.3106C104.148 27.9225 103.739 26.0294 102.911 24.6279L102.845 24.6667C103.664 26.0521 104.072 27.93 104.072 30.3106H104.148ZM98.0648 37.7294C100.437 37.7345 101.963 37.1067 102.893 35.8565C103.82 34.6093 104.148 32.7507 104.148 30.3106H104.072C104.072 32.7479 103.743 34.5848 102.831 35.8111C101.922 37.0344 100.425 37.6583 98.0649 37.6532L98.0648 37.7294Z" fill="#801818"/>
<path fill-rule="evenodd" clip-rule="evenodd" d="M72.9775 40.7803C74.2249 40.2443 75.4944 39.4409 76.7783 38.3834C76.7919 38.4825 76.8049 38.5841 76.8181 38.6874C76.9886 40.0191 77.1941 41.624 79.162 41.624C80.3347 41.624 82.991 40.3387 83.7963 39.6121L83.8151 37.7392C83.6245 37.7525 83.3222 37.8086 82.9822 37.8716C82.0744 38.04 80.8981 38.2581 80.863 37.8461L80.8542 37.7486L80.8171 35.5845L80.9572 25.8565C80.9842 23.9628 80.0627 22.6624 79.3617 21.8056C78.6607 20.9487 77.7236 20.319 76.5502 19.9176C75.3763 19.5225 74.0849 19.3212 72.6898 19.3212C70.869 19.3212 68.9633 20.1384 66.9747 20.9912C66.1576 21.3417 65.3264 21.6981 64.4814 22.0063V24.1088C67.1315 22.8568 69.5818 22.2277 71.8186 22.2277C72.7853 22.2277 72.9969 22.2711 73.6816 22.4378C73.6933 22.4407 73.705 22.4435 73.7166 22.4464C74.375 22.6068 74.8141 22.7138 74.8512 23.8049C74.8736 24.4664 74.8684 24.7396 74.8602 25.16C74.8563 25.3626 74.8517 25.5993 74.8493 25.9301L74.8304 28.5025C70.4091 28.5226 67.4927 29.1838 65.4783 30.5496C63.4632 31.9155 62.452 33.6493 62.452 35.7386C62.452 37.6467 63.1749 39.0993 64.6215 40.0902C66.0687 41.088 67.6265 41.5837 69.3092 41.5837C70.5045 41.5837 71.73 41.3157 72.9775 40.7803ZM74.8104 29.5437V35.6027C74.1635 36.3759 73.5215 36.9647 72.8946 37.3623C72.2627 37.7524 71.6453 37.9512 71.0335 37.9512C70.357 37.9512 69.759 37.5976 69.2559 36.8911C68.7471 36.1916 68.4952 35.3303 68.4952 34.3074C68.4952 32.827 69.0141 31.6569 70.0461 30.7956C71.0775 29.935 72.3576 29.4267 73.8821 29.4997L74.8104 29.5437Z" fill="#801818"/>
<path d="M76.7783 38.3834L76.816 38.3782L76.8067 38.3106L76.754 38.354L76.7783 38.3834ZM72.9775 40.7803L72.9925 40.8153L72.9925 40.8153L72.9775 40.7803ZM76.8181 38.6874L76.7803 38.6922L76.8181 38.6874ZM83.7963 39.6121L83.8218 39.6403L83.8342 39.6291L83.8344 39.6124L83.7963 39.6121ZM83.8151 37.7392L83.8532 37.7396L83.8537 37.6983L83.8125 37.7012L83.8151 37.7392ZM82.9822 37.8716L82.9752 37.8342L82.9822 37.8716ZM80.863 37.8461L80.9009 37.8429L80.9009 37.8427L80.863 37.8461ZM80.8542 37.7486L80.816 37.7493L80.8162 37.752L80.8542 37.7486ZM80.8171 35.5845L80.779 35.5839L80.779 35.5851L80.8171 35.5845ZM80.9572 25.8565L80.9953 25.857V25.857L80.9572 25.8565ZM76.5502 19.9176L76.5626 19.8815L76.5624 19.8815L76.5502 19.9176ZM66.9747 20.9912L66.9898 21.0262L66.9747 20.9912ZM64.4814 22.0063L64.4684 21.9705L64.4433 21.9796V22.0063H64.4814ZM64.4814 24.1088H64.4433V24.1689L64.4977 24.1432L64.4814 24.1088ZM73.6816 22.4378L73.6906 22.4008L73.6906 22.4008L73.6816 22.4378ZM73.7166 22.4464L73.7076 22.4834L73.7076 22.4834L73.7166 22.4464ZM74.8512 23.8049L74.8131 23.8062V23.8062L74.8512 23.8049ZM74.8602 25.16L74.8221 25.1593L74.8602 25.16ZM74.8493 25.9301L74.8112 25.9298V25.9298L74.8493 25.9301ZM74.8304 28.5025L74.8306 28.5406L74.8683 28.5404L74.8685 28.5028L74.8304 28.5025ZM65.4783 30.5496L65.4996 30.5812L65.4997 30.5812L65.4783 30.5496ZM64.6215 40.0902L64.6431 40.0588L64.643 40.0588L64.6215 40.0902ZM74.8104 35.6027L74.8396 35.6272L74.8485 35.6165V35.6027H74.8104ZM74.8104 29.5437H74.8485V29.5074L74.8122 29.5056L74.8104 29.5437ZM72.8946 37.3623L72.9147 37.3948L72.915 37.3945L72.8946 37.3623ZM69.2559 36.8911L69.2869 36.869L69.2867 36.8687L69.2559 36.8911ZM70.0461 30.7956L70.0217 30.7664L70.0217 30.7664L70.0461 30.7956ZM73.8821 29.4997L73.8802 29.5377L73.8802 29.5377L73.8821 29.4997ZM76.754 38.354C75.4723 39.4098 74.2059 40.211 72.9624 40.7453L72.9925 40.8153C74.244 40.2776 75.5165 39.4721 76.8025 38.4128L76.754 38.354ZM76.8559 38.6826C76.8427 38.5793 76.8296 38.4775 76.816 38.3782L76.7405 38.3886C76.7541 38.4875 76.7671 38.5889 76.7803 38.6922L76.8559 38.6826ZM79.162 41.5859C78.6753 41.5859 78.3003 41.4867 78.0085 41.3193C77.7168 41.1521 77.5058 40.9154 77.3492 40.6364C77.0349 40.0764 76.9414 39.3503 76.8559 38.6826L76.7803 38.6922C76.8653 39.3562 76.9598 40.0983 77.2828 40.6737C77.4449 40.9625 77.6649 41.2102 77.9706 41.3854C78.2761 41.5606 78.6648 41.6621 79.162 41.6621V41.5859ZM83.7708 39.5838C83.3727 39.943 82.5117 40.444 81.6012 40.8558C81.1466 41.0614 80.681 41.2441 80.2564 41.3754C79.831 41.5069 79.4494 41.5859 79.162 41.5859V41.6621C79.4609 41.6621 79.8511 41.5804 80.2789 41.4482C80.7073 41.3158 81.1759 41.1318 81.6326 40.9252C82.5448 40.5127 83.4147 40.0077 83.8218 39.6403L83.7708 39.5838ZM83.7771 37.7388L83.7582 39.6117L83.8344 39.6124L83.8532 37.7396L83.7771 37.7388ZM82.9891 37.9091C83.3302 37.8459 83.6299 37.7904 83.8178 37.7772L83.8125 37.7012C83.6191 37.7147 83.3141 37.7713 82.9752 37.8342L82.9891 37.9091ZM80.825 37.8494C80.8359 37.9765 80.9363 38.048 81.0714 38.0844C81.2069 38.1208 81.3906 38.1266 81.5976 38.1145C82.0124 38.0903 82.536 37.9931 82.9891 37.9091L82.9752 37.8342C82.5206 37.9185 82.0022 38.0145 81.5931 38.0384C81.3881 38.0504 81.2145 38.044 81.0912 38.0108C80.9675 37.9775 80.9077 37.9217 80.9009 37.8429L80.825 37.8494ZM80.8162 37.752L80.825 37.8495L80.9009 37.8427L80.8921 37.7452L80.8162 37.752ZM80.779 35.5851L80.8161 37.7493L80.8923 37.748L80.8552 35.5838L80.779 35.5851ZM80.9191 25.8559L80.779 35.5839L80.8552 35.585L80.9953 25.857L80.9191 25.8559ZM79.3322 21.8297C80.0316 22.6846 80.9459 23.9761 80.9191 25.8559L80.9953 25.857C81.0225 23.9496 80.0938 22.6403 79.3912 21.7814L79.3322 21.8297ZM76.5379 19.9536C77.7053 20.353 78.6363 20.979 79.3322 21.8297L79.3912 21.7814C78.6852 20.9185 77.7418 20.2849 76.5626 19.8815L76.5379 19.9536ZM72.6898 19.3593C74.0812 19.3593 75.3685 19.5601 76.5381 19.9537L76.5624 19.8815C75.3841 19.4849 74.0885 19.2831 72.6898 19.2831V19.3593ZM66.9898 21.0262C68.9804 20.1726 70.8784 19.3593 72.6898 19.3593V19.2831C70.8596 19.2831 68.9462 20.1043 66.9597 20.9562L66.9898 21.0262ZM64.4945 22.0421C65.3406 21.7335 66.1728 21.3766 66.9898 21.0262L66.9597 20.9562C66.1424 21.3067 65.3122 21.6627 64.4684 21.9705L64.4945 22.0421ZM64.5195 24.1088V22.0063H64.4433V24.1088H64.5195ZM71.8186 22.1896C69.5747 22.1896 67.1188 22.8207 64.4652 24.0743L64.4977 24.1432C67.1442 22.893 69.5889 22.2658 71.8186 22.2658V22.1896ZM73.6906 22.4008C73.3484 22.3175 73.1223 22.2644 72.8605 22.2324C72.5987 22.2005 72.3022 22.1896 71.8186 22.1896V22.2658C72.3016 22.2658 72.5943 22.2767 72.8512 22.3081C73.1081 22.3395 73.3301 22.3915 73.6726 22.4749L73.6906 22.4008ZM73.7256 22.4094C73.714 22.4065 73.7024 22.4037 73.6906 22.4008L73.6726 22.4748C73.6843 22.4777 73.696 22.4806 73.7076 22.4834L73.7256 22.4094ZM74.8892 23.8036C74.8706 23.254 74.7505 22.9421 74.5428 22.7487C74.3374 22.5574 74.0521 22.4889 73.7256 22.4094L73.7076 22.4834C74.0395 22.5643 74.3029 22.6294 74.4909 22.8045C74.6767 22.9775 74.7947 23.2647 74.8131 23.8062L74.8892 23.8036ZM74.8983 25.1607C74.9065 24.7399 74.9117 24.466 74.8892 23.8036L74.8131 23.8062C74.8355 24.4667 74.8303 24.7393 74.8221 25.1593L74.8983 25.1607ZM74.8874 25.9303C74.8898 25.5998 74.8944 25.3633 74.8983 25.1607L74.8221 25.1593C74.8182 25.3618 74.8136 25.5988 74.8112 25.9298L74.8874 25.9303ZM74.8685 28.5028L74.8874 25.9303L74.8112 25.9298L74.7923 28.5022L74.8685 28.5028ZM65.4997 30.5812C67.5046 29.2217 70.4118 28.5607 74.8306 28.5406L74.8303 28.4644C70.4063 28.4846 67.4807 29.1459 65.4569 30.5181L65.4997 30.5812ZM62.4901 35.7386C62.4901 33.6642 63.4931 31.9413 65.4996 30.5812L65.4569 30.5181C63.4334 31.8897 62.4139 33.6344 62.4139 35.7386H62.4901ZM64.643 40.0588C63.2079 39.0757 62.4901 37.6355 62.4901 35.7386H62.4139C62.4139 37.6579 63.142 39.1229 64.6 40.1216L64.643 40.0588ZM69.3092 41.5456C67.6345 41.5456 66.0843 41.0524 64.6431 40.0588L64.5999 40.1216C66.0532 41.1235 67.6184 41.6218 69.3092 41.6218V41.5456ZM72.9624 40.7453C71.7191 41.2789 70.4987 41.5456 69.3092 41.5456V41.6218C70.5103 41.6218 71.7409 41.3525 72.9925 40.8153L72.9624 40.7453ZM74.8485 35.6027V29.5437H74.7723V35.6027H74.8485ZM72.915 37.3945C73.5462 36.9942 74.191 36.4024 74.8396 35.6272L74.7812 35.5783C74.1359 36.3494 73.4969 36.9353 72.8742 37.3302L72.915 37.3945ZM71.0335 37.9893C71.6539 37.9893 72.2782 37.7876 72.9147 37.3948L72.8746 37.3299C72.2473 37.7172 71.6367 37.9131 71.0335 37.9131V37.9893ZM69.2249 36.9132C69.733 37.6268 70.3414 37.9893 71.0335 37.9893V37.9131C70.3726 37.9131 69.7851 37.5685 69.2869 36.869L69.2249 36.9132ZM68.4571 34.3074C68.4571 35.3368 68.7107 36.2063 69.2251 36.9135L69.2867 36.8687C68.7835 36.1768 68.5333 35.3238 68.5333 34.3074H68.4571ZM70.0217 30.7664C68.9801 31.6356 68.4571 32.817 68.4571 34.3074H68.5333C68.5333 32.8371 69.0481 31.6782 70.0705 30.8249L70.0217 30.7664ZM73.8839 29.4616C72.3491 29.3881 71.0597 29.9002 70.0217 30.7664L70.0705 30.8249C71.0952 29.9698 72.3661 29.4652 73.8802 29.5377L73.8839 29.4616ZM74.8122 29.5056L73.8839 29.4616L73.8802 29.5377L74.8086 29.5818L74.8122 29.5056Z" fill="#801818"/>
<path d="M36.9822 41.7221V19.5358H41.5204V23.7055C42.6768 22.2202 44.0134 21.0771 45.5391 20.2611C47.0724 19.4521 48.6534 19.0476 50.3047 19.0476C52.4203 19.0476 54.1426 19.6402 55.4635 20.833C56.7851 22.0252 57.4453 23.6772 57.4453 25.7898V41.7221H51.5855V26.9568C51.5855 25.4224 51.7727 24.2 51.4686 23.7124C51.1615 23.2192 51.0886 22.9519 50.5352 22.6813C49.9278 22.3838 49.7218 22.5272 49.0931 22.5272C47.9687 22.5272 47.0485 22.8273 45.7514 23.4407C44.4544 24.0541 43.0379 25.3576 41.5204 27.3588V41.7221H36.9822Z" fill="#801818" stroke="#801818" stroke-width="0.0762" stroke-miterlimit="22.9256"/>
<path d="M11.1448 40.3682V35.7946C13.8212 36.9962 15.7797 37.7178 17.0108 37.965C18.2426 38.2129 19.3896 38.3406 20.4454 38.3406C22.3493 38.3406 23.8637 37.8297 24.9648 36.8087C26.0747 35.7946 26.6256 34.5709 26.6256 33.151C26.6256 32.0771 26.3341 31.0856 25.7531 30.1772C25.1639 29.2838 23.6954 28.1948 21.3707 26.9033L19.0761 25.6035C16.009 23.9068 13.9512 22.3522 12.896 20.9399C11.8483 19.5363 11.32 17.9736 11.32 16.2542C11.32 14.7148 11.7409 13.2729 12.5744 11.9209C13.4079 10.5696 14.5253 9.51767 15.9323 8.75204C17.34 7.99332 19.1063 7.6102 21.24 7.6102C23.8178 7.6102 26.5257 8.03044 29.3862 8.86465V13.0923C26.9007 12.1386 25.1947 11.5604 24.2688 11.3654C23.3436 11.1628 22.4184 11.0647 21.5007 11.0647C19.573 11.0647 18.1427 11.5529 17.2175 12.5368C16.2916 13.5201 15.8256 14.5267 15.8256 15.5477C15.8256 16.2542 16.0473 16.967 16.4832 17.6962C16.9191 18.4247 17.5159 19.0475 18.2501 19.5659C18.9919 20.0843 20.0089 20.7077 21.3016 21.4205L23.6954 22.7429C26.7857 24.4623 28.851 26.0319 29.8912 27.4512C30.9232 28.8856 31.4439 30.5377 31.4439 32.4005C31.4439 34.939 30.4565 37.139 28.4836 39.0018C26.5031 40.864 23.5967 41.7951 19.7495 41.7951C18.5636 41.7951 17.4166 41.7202 16.3073 41.5623C15.1905 41.4119 13.4695 41.0137 11.1448 40.3682Z" fill="#801818" stroke="#801818" stroke-width="0.0762" stroke-miterlimit="22.9256"/>
<path d="M285.78 40.2506V36.6841C288.313 37.9424 290.516 38.5753 292.397 38.5753C293.499 38.5753 294.419 38.272 295.158 37.6668C295.904 37.061 296.274 36.3073 296.274 35.4064C296.274 34.8408 296.092 34.2891 295.723 33.7506C295.353 33.2058 294.507 32.6609 293.183 32.1092L290.919 31.1467C289.173 30.4269 287.896 29.5858 287.097 28.6233C286.298 27.6752 285.894 26.5176 285.894 25.1317C285.894 23.4161 286.519 21.983 287.762 20.8392C289.012 19.6955 290.859 19.123 293.298 19.123C294.493 19.123 295.971 19.2847 297.731 19.615L298.537 19.776V23.0059C296.374 22.3661 294.648 22.0434 293.358 22.0434C292.109 22.0434 291.181 22.3126 290.563 22.8505C289.945 23.389 289.636 24.0282 289.636 24.7618C289.636 25.3399 289.844 25.8583 290.268 26.3157C290.671 26.7938 291.409 27.2581 292.471 27.7155L294.339 28.5094C296.851 29.5726 298.443 30.622 299.128 31.6581C299.807 32.6943 300.15 33.8248 300.15 35.0497C300.15 36.2198 299.834 37.3032 299.196 38.2991C298.557 39.3019 297.617 40.082 296.381 40.6469C295.138 41.2125 293.761 41.495 292.236 41.495C290.463 41.495 288.313 41.0779 285.78 40.2506Z" fill="#801818" stroke="#801818" stroke-width="0.0762" stroke-miterlimit="22.9256"/>
<path d="M264.266 40.4129V36.8465C266.799 38.1047 269.002 38.737 270.884 38.737C271.985 38.737 272.906 38.4344 273.644 37.8292C274.39 37.2233 274.76 36.4696 274.76 35.5681C274.76 35.0032 274.578 34.4514 274.209 33.9129C273.84 33.3681 272.993 32.8226 271.669 32.2709L269.406 31.309C267.659 30.5893 266.383 29.7482 265.583 28.7856C264.784 27.8375 264.381 26.68 264.381 25.294C264.381 23.5778 265.005 22.1453 266.248 21.0016C267.498 19.8572 269.345 19.2854 271.784 19.2854C272.979 19.2854 274.458 19.447 276.218 19.7767L277.024 19.9384V23.1683C274.86 22.5284 273.134 22.2057 271.844 22.2057C270.595 22.2057 269.668 22.475 269.05 23.0129C268.431 23.5514 268.122 24.1906 268.122 24.9241C268.122 25.5023 268.33 26.0207 268.754 26.478C269.157 26.9555 269.896 27.4204 270.957 27.8772L272.825 28.6718C275.337 29.7343 276.929 30.7843 277.615 31.8205C278.293 32.8566 278.636 33.9865 278.636 35.2114C278.636 36.3822 278.32 37.4655 277.682 38.4614C277.044 39.4636 276.103 40.2443 274.867 40.8093C273.624 41.3742 272.247 41.6573 270.722 41.6573C268.949 41.6573 266.799 41.2402 264.266 40.4129Z" fill="#801818" stroke="#801818" stroke-width="0.0762" stroke-miterlimit="22.9256"/>
<path d="M147.378 14.75H144.779" stroke="#801818" stroke-width="0.5" stroke-miterlimit="22.9256"/>
<path d="M148.432 12.5971L144.709 12.5929" stroke="#801818" stroke-width="0.5" stroke-miterlimit="22.9256"/>
<path d="M147.378 10.609L133.119 10.5922" stroke="#801818" stroke-width="0.5" stroke-miterlimit="22.9256"/>
<path d="M136.701 8.42491L145.693 8.43571" stroke="#801818" stroke-width="0.5" stroke-miterlimit="22.9256"/>
<path d="M131.151 12.5759L141.056 12.5873" stroke="#801818" stroke-width="0.5" stroke-miterlimit="22.9256"/>
<path d="M130.175 14.6953H140.914" stroke="#801818" stroke-width="0.5" stroke-miterlimit="22.9256"/>
<path d="M130.133 16.7431L141.067 16.701" stroke="#801818" stroke-width="0.5" stroke-miterlimit="22.9256"/>
<path d="M130.133 18.7915H139.883" stroke="#801818" stroke-width="0.5" stroke-miterlimit="22.9256"/>
<path d="M131.405 20.8814H137.433" stroke="#801818" stroke-width="0.5" stroke-miterlimit="22.9256"/>
<path d="M129.094 24.8952L135.146 24.853" stroke="#801818" stroke-width="0.5" stroke-miterlimit="22.9256"/>
<path d="M127.015 26.985H134.83" stroke="#801818" stroke-width="0.5" stroke-miterlimit="22.9256"/>
<path d="M124.977 29.0278H132.712" stroke="#801818" stroke-width="0.5" stroke-miterlimit="22.9256"/>
<path d="M143.701 41.4226L128.401 41.4623" stroke="#801818" stroke-width="0.5" stroke-miterlimit="22.9256"/>
<path d="M137.797 39.3113H126.254" stroke="#801818" stroke-width="0.5" stroke-miterlimit="22.9256"/>
<path d="M134.207 37.2007L125.061 37.2403" stroke="#801818" stroke-width="0.5" stroke-miterlimit="22.9256"/>
<path d="M133.744 35.2491H124.067" stroke="#801818" stroke-width="0.5" stroke-miterlimit="22.9256"/>
<path d="M131.423 33.1384H124.027" stroke="#801818" stroke-width="0.5" stroke-miterlimit="22.9256"/>
<path d="M131.145 31.1467L123.988 31.1071" stroke="#801818" stroke-width="0.5" stroke-miterlimit="22.9256"/>
<path d="M147.513 35.2604H150.253" stroke="#801818" stroke-width="0.5" stroke-miterlimit="22.9256"/>
<path fill-rule="evenodd" clip-rule="evenodd" d="M150.736 9.16289C149.621 7.68384 145.208 7.41333 143.926 8.69672C142.243 10.3828 141.548 13.8416 142.121 16.3033C142.583 18.2914 142.597 19.4728 147.38 19.3288L147.356 22.1812C140.075 21.776 135.704 25.333 137.052 31.7985C137.82 35.4844 139.808 37.8914 143.109 37.8914C147.955 37.8914 150.95 36.0311 154.758 33.4977C155.012 33.3285 155.087 34.8138 154.888 35.0818C153.047 37.563 147.745 40.0738 145.155 40.5929C138.036 42.0191 131.045 37.2214 131.045 30.6742C131.045 25.5734 135.984 22.2214 140.448 20.811C140.448 20.811 133.878 17.717 136.093 11.7442C137.429 8.14498 145.297 6.10414 148.391 6.10414C153.117 6.10414 153.558 8.38719 153.764 9.60453C153.97 10.8219 152.651 12.8979 152.134 13.6944L151.369 13.3C151.369 11.8819 151.662 10.3903 150.736 9.16289Z" fill="#801818" stroke="#801818" stroke-width="0.0762" stroke-miterlimit="22.9256"/>
<path d="M37.6415 8.53773L83.2075 8.53773" stroke="#801818" stroke-dasharray="2.5 0.8"/>
<path d="M96.0849 8.53773L119.858 8.53773" stroke="#801818" stroke-miterlimit="1.55572" stroke-dasharray="2.5 0.8"/>
<path d="M163.443 8.53773L302.123 8.53773" stroke="#801818" stroke-miterlimit="1.55572" stroke-dasharray="2.5 0.8"/>
<path d="M96.0849 7.54718L120.849 7.54718" stroke="#801818" stroke-width="0.2"/>
<path d="M37.6415 7.54718L83.2075 7.54718" stroke="#801818" stroke-width="0.2"/>
<path d="M162.453 7.54718L302.123 7.54718" stroke="#801818" stroke-width="0.2"/>
<path d="M37.6415 10.5189L83.2075 10.5189" stroke="#801818" stroke-width="0.2" stroke-dasharray="0.2 0.2"/>
<path d="M96.0849 10.5189L118.868 10.5189" stroke="#801818" stroke-width="0.2" stroke-dasharray="0.2 0.2"/>
<path d="M164.434 10.5189L302.123 10.5189" stroke="#801818" stroke-width="0.2" stroke-dasharray="0.2 0.2"/>
</svg>
