<svg width="19" height="19" viewBox="0 0 19 19" fill="none" xmlns="http://www.w3.org/2000/svg">
<path d="M18.0158 11.3601C18.1388 10.7662 18.2152 10.1342 18.2152 9.50212C18.2152 4.68743 14.3168 0.793257 9.50635 0.793257C8.87429 0.793257 8.24647 0.865372 7.64834 0.992632C6.84236 0.369056 5.84125 0 4.75105 0C2.12949 0 0 2.12949 0 4.75106C0 5.84126 0.369055 6.84238 0.988388 7.64412C0.86537 8.238 0.789014 8.87006 0.789014 9.50212C0.789014 14.3168 4.68742 18.211 9.49786 18.211C10.1299 18.211 10.7577 18.1389 11.3559 18.0116C12.1618 18.6309 13.163 19 14.2489 19C16.8705 19 19 16.8705 19 14.2489C19.0042 13.163 18.6352 12.1619 18.0158 11.3601V11.3601ZM9.76087 15.2416C6.97811 15.2416 4.64924 14.0029 4.64924 12.4843C4.64924 11.8055 5.03102 11.1862 5.90064 11.1862C7.22414 11.1862 7.34716 13.0909 9.63785 13.0909C10.728 13.0909 11.4322 12.6073 11.4322 11.9752C11.4322 11.182 10.7535 11.0589 9.65057 10.7875C6.99932 10.1342 4.65349 9.85421 4.65349 7.08841C4.65349 4.57714 7.1393 3.64814 9.28152 3.64814C11.6189 3.64814 13.9817 4.57714 13.9817 5.99821C13.9817 6.71511 13.4981 7.34718 12.6963 7.34718C11.4958 7.34718 11.4577 5.9261 9.51483 5.9261C8.42463 5.9261 7.73319 6.22304 7.73319 6.88055C7.73319 7.72047 8.61552 7.80531 10.6644 8.28042C12.4206 8.67493 14.5119 9.41728 14.5119 11.5722C14.5119 14.0793 12.0897 15.2416 9.76087 15.2416V15.2416Z" fill="white"/>
</svg>
