<svg width="10" height="18" viewBox="0 0 10 18" fill="none" xmlns="http://www.w3.org/2000/svg">
<path d="M7.45453 8.95112L0.595725 15.6891C0.476651 15.8095 0.477043 16.0022 0.596903 16.1221L1.07353 16.5987C1.19378 16.7189 1.3874 16.7189 1.50764 16.5987L1.51038 16.596L9.41435 8.81278C9.52953 8.69238 9.52899 8.49852 9.41 8.37842C9.40966 8.37807 9.40931 8.37773 9.40896 8.37738L1.50367 0.592901L1.50366 0.592912L1.50094 0.59019C1.38069 0.469937 1.18707 0.469937 1.06682 0.59019L0.59019 1.06682C0.470352 1.18666 0.469937 1.37935 0.588946 1.49969L7.45436 8.23759L7.81778 8.59426L7.45453 8.95112Z" fill="#B2B4B6" stroke="#B2B4B6"/>
</svg>
