<svg width="29" height="29" viewBox="0 0 29 29" fill="801818" xmlns="http://www.w3.org/2000/svg">
<path d="M27.8347 1.88129L27.8341 1.88114L21.9439 0.521864L27.8347 1.88129ZM27.8347 1.88129C28.2239 1.97054 28.5 2.31695 28.5 2.71931C28.5 16.9709 16.9488 28.5 2.71928 28.5C2.31469 28.5 1.97095 28.2215 1.88112 27.8341L27.8347 1.88129ZM18.4846 8.36235L18.4872 8.36447L21.9196 11.1738L22.221 11.4205L22.0555 11.7732C19.9675 16.2217 16.3206 19.9211 11.7786 22.05L11.426 22.2152L11.1794 21.9139L8.37028 18.4818C8.12537 18.1828 7.71728 18.084 7.36811 18.2336L1.02861 20.9505C1.02799 20.9508 1.02738 20.9511 1.02677 20.9513C0.638419 21.123 0.429532 21.542 0.521769 21.9436L18.4846 8.36235ZM18.4846 8.36235C18.1905 8.12491 18.0888 7.71363 18.2393 7.36246L20.9571 1.02093C20.9572 1.02061 20.9574 1.02029 20.9575 1.01997M18.4846 8.36235L20.9575 1.01997M20.9575 1.01997C21.1227 0.640459 21.5398 0.429052 21.9436 0.521792L20.9575 1.01997ZM1.88104 27.8337L0.521842 21.9439L1.88104 27.8337Z" fill="801818" stroke="white"/>
</svg>
