<svg width="15" height="16" viewBox="0 0 15 16" fill="none" xmlns="http://www.w3.org/2000/svg">
<path fill-rule="evenodd" clip-rule="evenodd" d="M14.8292 14.998L11.2758 11.3874C12.4726 10.1659 13.1579 8.52373 13.1889 6.80303C13.22 5.08233 12.5943 3.41588 11.4424 2.15093C10.2905 0.885986 8.70115 0.120111 7.00559 0.0129694C5.31003 -0.0941718 3.63906 0.465656 2.3409 1.57578C1.04274 2.68591 0.217535 4.2607 0.0372569 5.97197C-0.143021 7.68324 0.335534 9.399 1.37319 10.7617C2.41085 12.1243 3.92757 13.0287 5.60726 13.2865C7.28696 13.5443 9.00005 13.1354 10.3895 12.1452L14.0135 15.8297C14.0674 15.8839 14.1314 15.9269 14.2017 15.9561C14.272 15.9853 14.3473 16.0002 14.4233 16C14.4992 15.9997 14.5744 15.9843 14.6445 15.9546C14.7147 15.9249 14.7783 15.8815 14.8319 15.8269C14.8854 15.7723 14.9278 15.7076 14.9567 15.6363C14.9855 15.5651 15.0002 15.4889 15 15.4119C14.9997 15.3349 14.9845 15.2587 14.9552 15.1877C14.9259 15.1167 14.8831 15.0522 14.8292 14.998ZM1.24785 6.71578C1.25126 5.63769 1.56996 4.58479 2.16369 3.69007C2.75743 2.79535 3.59957 2.09896 4.58377 1.68879C5.56797 1.27862 6.65008 1.17305 7.69344 1.38549C8.73681 1.59793 9.69463 2.11886 10.446 2.8824C11.1973 3.64595 11.7084 4.61792 11.9148 5.67555C12.1211 6.73318 12.0135 7.829 11.6054 8.82471C11.1974 9.82041 10.5072 10.6713 9.62213 11.2699C8.73702 11.8685 7.69665 12.188 6.63242 12.188C5.92414 12.187 5.223 12.0446 4.56904 11.7691C3.91508 11.4935 3.32112 11.0901 2.82109 10.5819C2.32106 10.0737 1.92476 9.47074 1.65482 8.80739C1.38488 8.14403 1.24659 7.43329 1.24785 6.71578Z" fill="#801818"/>
</svg>
