<svg width="19" height="19" viewBox="0 0 19 19" fill="none" xmlns="http://www.w3.org/2000/svg">
<path d="M17.5262 11.2587L17.4796 11.4838L17.6201 11.6658C18.1749 12.3839 18.5038 13.2778 18.5 14.247V14.2489C18.5 16.5944 16.5943 18.5 14.2489 18.5C13.2786 18.5 12.3835 18.1707 11.6605 17.6151L11.4775 17.4745L11.2518 17.5226C10.6852 17.6431 10.0923 17.711 9.49786 17.711C4.96341 17.711 1.28901 14.0405 1.28901 9.50212C1.28901 8.90938 1.36073 8.31162 1.47799 7.74554L1.52463 7.5204L1.38408 7.33845C0.829525 6.62057 0.5 5.72607 0.5 4.75106C0.5 2.40563 2.40563 0.5 4.75105 0.5C5.72575 0.5 6.62017 0.829324 7.34238 1.38809L7.5257 1.52992L7.7524 1.48169C8.31896 1.36114 8.91187 1.29326 9.50635 1.29326C14.0408 1.29326 17.7152 4.96373 17.7152 9.50212C17.7152 10.0949 17.6435 10.6926 17.5262 11.2587ZM9.53095 11.2729L9.53106 11.273C9.58063 11.2852 9.62859 11.2969 9.67501 11.3083C10.1807 11.4323 10.5027 11.5112 10.7199 11.627C10.8226 11.6817 10.8655 11.7276 10.8869 11.7612C10.9066 11.7923 10.9322 11.8507 10.9322 11.9752C10.9322 12.0822 10.8789 12.218 10.6743 12.3489C10.4633 12.484 10.1156 12.5909 9.63785 12.5909C8.67443 12.5909 8.19011 12.2093 7.75775 11.7826C7.70669 11.7323 7.65247 11.6768 7.59574 11.6188C7.42233 11.4416 7.22554 11.2404 7.02458 11.0867C6.72944 10.8609 6.36962 10.6862 5.90064 10.6862C5.33652 10.6862 4.87795 10.8928 4.5682 11.2565C4.26895 11.6078 4.14924 12.0572 4.14924 12.4843C4.14924 13.5188 4.93284 14.3401 5.92495 14.8729C6.93989 15.418 8.30191 15.7416 9.76087 15.7416C10.9988 15.7416 12.2906 15.4343 13.289 14.7617C14.3045 14.0777 15.0119 13.0139 15.0119 11.5722C15.0119 10.2959 14.3771 9.42956 13.5277 8.85256C12.7038 8.29288 11.6646 7.99272 10.7757 7.79296C10.513 7.73205 10.2745 7.67846 10.0576 7.62974C9.39631 7.48116 8.93716 7.378 8.61186 7.25136C8.40577 7.17112 8.31941 7.10414 8.28225 7.0609C8.25904 7.03389 8.23318 6.99355 8.23318 6.88055C8.23318 6.77517 8.26647 6.69117 8.44093 6.6029C8.64746 6.49839 9.00083 6.4261 9.51483 6.4261C9.93618 6.4261 10.232 6.50241 10.4573 6.60397C10.6857 6.70695 10.8663 6.84657 11.0531 7.01148C11.0932 7.04688 11.135 7.08541 11.1788 7.12585C11.5107 7.43173 11.9614 7.84718 12.6963 7.84718C13.826 7.84718 14.4817 6.93651 14.4817 5.99821C14.4817 4.98036 13.6455 4.26708 12.7186 3.83676C11.7573 3.39044 10.5077 3.14814 9.28152 3.14814C8.15024 3.14814 6.89399 3.39152 5.90249 4.00049C4.88823 4.62344 4.15349 5.63355 4.15349 7.08841C4.15349 7.85242 4.31627 8.4836 4.63542 9.00307C4.95407 9.52174 5.40522 9.891 5.91959 10.1697C6.42902 10.4458 7.01433 10.6404 7.61997 10.8053C8.00611 10.9104 8.42171 11.0086 8.84054 11.1075C9.07116 11.162 9.30275 11.2167 9.53095 11.2729Z" fill="white" stroke="white"/>
</svg>
