<svg width="23" height="16" viewBox="0 0 23 16" fill="none" xmlns="http://www.w3.org/2000/svg">
<path d="M21.7968 2.6318L21.7969 2.63209C22.0196 3.46865 22.1373 4.79868 22.1968 5.95531C22.2262 6.52618 22.2409 7.04234 22.2483 7.41582C22.2519 7.60245 22.2538 7.75318 22.2547 7.85696C22.2551 7.90884 22.2554 7.94897 22.2555 7.97597L22.2556 8.00644L22.2556 8.01396L22.2556 8.01574V8.01612V8.01617V8.01621V8.0166L22.2556 8.01837L22.2556 8.02589L22.2555 8.05636C22.2554 8.08336 22.2551 8.12349 22.2547 8.17538C22.2538 8.27916 22.2519 8.42988 22.2483 8.61651C22.2409 8.98999 22.2262 9.50616 22.1968 10.077C22.1373 11.2337 22.0196 12.5637 21.7969 13.4002L21.7968 13.4005C21.583 14.2057 20.9522 14.8196 20.1384 15.0386L20.1381 15.0387C19.7467 15.1442 19.0144 15.2319 18.0938 15.2994C17.1874 15.366 16.1397 15.4106 15.1426 15.4404C14.1463 15.4702 13.2048 15.4851 12.512 15.4926C12.1657 15.4963 11.8818 15.4981 11.6847 15.4991C11.5861 15.4995 11.5092 15.4998 11.457 15.4999L11.3977 15.5L11.3827 15.5L11.379 15.5H11.3781H11.3778L11.3778 16L11.3777 15.5H11.3775H11.3766L11.3729 15.5L11.3579 15.5L11.2986 15.4999C11.2464 15.4998 11.1695 15.4995 11.0709 15.4991C10.8738 15.4981 10.5899 15.4963 10.2436 15.4926C9.55082 15.4851 8.60924 15.4702 7.61299 15.4404C6.61593 15.4106 5.56815 15.366 4.66175 15.2994C3.74121 15.2319 3.00892 15.1442 2.61752 15.0387L2.61722 15.0386C1.80335 14.8196 1.17258 14.2057 0.958748 13.4005L0.958671 13.4002C0.735963 12.5637 0.618303 11.2337 0.558777 10.077C0.529397 9.50616 0.514688 8.98999 0.507333 8.61651C0.503657 8.42988 0.501824 8.27916 0.500909 8.17538C0.500452 8.12349 0.500225 8.08336 0.500112 8.05636L0.500013 8.02589L0.500002 8.01837L0.5 8.0166L0.5 8.01621V8.01619V8.01615V8.01612L0.5 8.01574L0.500002 8.01396L0.500013 8.00644L0.500112 7.97597C0.500225 7.94897 0.500452 7.90884 0.500909 7.85696C0.501824 7.75318 0.503657 7.60245 0.507333 7.41582C0.514688 7.04234 0.529397 6.52618 0.558777 5.95531C0.618303 4.79868 0.735963 3.46865 0.958671 2.63209L0.958748 2.6318C1.17487 1.81804 1.81209 1.17804 2.61724 0.961413L2.61752 0.961337C3.00892 0.855784 3.74121 0.768145 4.66175 0.70056C5.56815 0.634013 6.61593 0.589411 7.61299 0.5596C8.60924 0.529812 9.55082 0.514905 10.2436 0.507449C10.5899 0.503722 10.8738 0.50186 11.0709 0.500929C11.1695 0.500464 11.2464 0.500232 11.2986 0.500116L11.3579 0.500014L11.3729 0.500002L11.3766 0.5L11.3775 0.5H11.3777L11.3778 0L11.3778 0.5H11.3781L11.379 0.5L11.3827 0.500002L11.3977 0.500014L11.457 0.500116C11.5092 0.500232 11.5861 0.500464 11.6847 0.500929C11.8818 0.50186 12.1657 0.503722 12.512 0.507449C13.2048 0.514905 14.1464 0.529812 15.1426 0.5596C16.1397 0.589411 17.1875 0.634013 18.0939 0.70056C19.0144 0.768145 19.7467 0.855784 20.1381 0.961336L20.1384 0.961418C20.9435 1.17801 21.5807 1.81803 21.7968 2.6318ZM8.5505 11.3996V12.2593L9.29773 11.8342L15.2452 8.45085L16.0091 8.01626L15.2452 7.58166L9.29774 4.19812L8.5505 3.77301V4.63271V11.3996Z" fill="white" stroke="white"/>
</svg>
