<svg width="45" height="45" viewBox="0 0 45 45" fill="none" xmlns="http://www.w3.org/2000/svg">
<path d="M45 43.0812L30.9802 29.0614C33.6226 25.9799 35.2325 21.9878 35.2325 17.6162C35.2325 7.90292 27.3296 0 17.6162 0C12.9086 0 8.48561 1.83209 5.15749 5.1602C1.82938 8.48561 0 12.9113 0 17.6162C0 27.3296 7.90292 35.2325 17.6162 35.2325C21.9851 35.2325 25.9799 33.6226 29.0641 30.9802L43.0839 45L45 43.0812ZM17.6162 32.5223C9.39623 32.5223 2.71019 25.8362 2.71019 17.6162C2.71019 13.6323 4.25771 9.88948 7.0736 7.0736C9.88948 4.26042 13.6323 2.71019 17.6162 2.71019C25.8362 2.71019 32.5223 9.39623 32.5223 17.6162C32.5223 25.8362 25.8362 32.5223 17.6162 32.5223ZM18.9713 16.2611H24.3917V18.9713H18.9713V24.3917H16.2611V18.9713H10.8408V16.2611H16.2611V10.8408H18.9713V16.2611Z" fill="white"/>
</svg>
