<svg width="51" height="48" viewBox="0 0 51 48" fill="none" xmlns="http://www.w3.org/2000/svg">
<path d="M18.9531 26.8594V47.2695H0.105469V31.1562C0.105469 22.4323 1.14714 16.1172 3.23047 12.2109C5.96484 7.0026 10.2943 3.0638 16.2188 0.394531L20.5156 7.23047C16.9349 8.72786 14.2982 10.974 12.6055 13.9688C10.9128 16.8984 9.96875 21.1953 9.77344 26.8594H18.9531ZM49.2266 26.8594V47.2695H30.3789V31.1562C30.3789 22.4323 31.4206 16.1172 33.5039 12.2109C36.2383 7.0026 40.5677 3.0638 46.4922 0.394531L50.7891 7.23047C47.2083 8.72786 44.5716 10.974 42.8789 13.9688C41.1862 16.8984 40.2422 21.1953 40.0469 26.8594H49.2266Z" fill="#801818"/>
</svg>
