<svg width="33" height="25" viewBox="0 0 33 25" fill="none" xmlns="http://www.w3.org/2000/svg">
<path d="M30.4062 3.125V2.625H29.9062H3.09375H2.59375V3.125V5.78157V6.01771L2.77611 6.16772C4.22556 7.36001 6.53343 9.21148 11.4577 13.1063C11.6199 13.2352 11.8208 13.4044 12.0478 13.5956C12.5191 13.9926 13.103 14.4843 13.6869 14.9071C14.1297 15.2276 14.6001 15.5304 15.0672 15.7529C15.5262 15.9716 16.0189 16.1308 16.5 16.1248C16.9811 16.1307 17.4739 15.9715 17.9329 15.7529C18.3999 15.5304 18.8703 15.2276 19.313 14.9071C19.8968 14.4845 20.4806 13.9928 20.9519 13.5959C21.179 13.4046 21.38 13.2353 21.5424 13.1063C26.4674 9.21087 28.7746 7.35982 30.2239 6.16772L30.4062 6.01771V5.78157V3.125ZM2.59375 21.875V22.375H3.09375H29.9062H30.4062V21.875V9.7916V8.74759L29.5928 9.40203C28.1175 10.589 26.0238 12.2558 22.8319 14.7805L22.8309 14.7813C22.6045 14.9613 22.3649 15.1627 22.111 15.3761C21.5045 15.8858 20.8165 16.464 20.0325 16.9834C18.9309 17.7132 17.734 18.2567 16.5027 18.2499V18.2499L16.4973 18.2499C15.26 18.2567 14.0522 17.7049 12.946 16.9702C12.1603 16.4483 11.4747 15.8707 10.8774 15.3675C10.6257 15.1555 10.3897 14.9567 10.1685 14.7808L10.1675 14.78C6.97554 12.2552 4.88242 10.5889 3.40718 9.40197L2.59375 8.74753V9.79154V21.875ZM3.09375 0.5H29.9062C31.334 0.5 32.5 1.67048 32.5 3.125V21.875C32.5 23.3295 31.334 24.5 29.9062 24.5H3.09375C1.66597 24.5 0.5 23.3295 0.5 21.875V3.125C0.5 1.67048 1.66597 0.5 3.09375 0.5Z" fill="white" stroke="white"/>
</svg>
