<svg width="10" height="7" viewBox="0 0 10 7" fill="none" xmlns="http://www.w3.org/2000/svg">
<path d="M0.586055 1.3456L0.587869 1.34365L1.29434 0.577915C1.39125 0.472874 1.52589 0.475837 1.61727 0.575952L1.61726 0.575957L1.61907 0.577915L4.63251 3.84413L5 4.24244L5.36749 3.84413L8.38093 0.577915C8.47784 0.472874 8.61248 0.475837 8.70386 0.575952L8.70385 0.575957L8.70566 0.577915L9.41213 1.34365C9.53024 1.47166 9.52773 1.69017 9.41394 1.81219L9.41213 1.81415L5.1608 6.42209L5.16078 6.42207L5.15719 6.42604C5.07026 6.52232 4.9372 6.52831 4.8392 6.42209L0.587869 1.81415C0.469759 1.68613 0.472266 1.46762 0.586055 1.3456Z" fill="white" stroke="white"/>
</svg>
