<svg width="33" height="25" viewBox="0 0 33 25" fill="none" xmlns="http://www.w3.org/2000/svg">
<path d="M29.9062 0H3.09375C1.3851 0 0 1.39909 0 3.125V21.875C0 23.6009 1.3851 25 3.09375 25H29.9062C31.6149 25 33 23.6009 33 21.875V3.125C33 1.39909 31.6149 0 29.9062 0ZM29.9062 3.125V5.78157C28.4611 6.97031 26.1571 8.81875 21.2317 12.7145C20.1462 13.577 17.9961 15.6489 16.5 15.6247C15.0042 15.6492 12.8533 13.5766 11.7683 12.7145C6.84363 8.81934 4.53911 6.97051 3.09375 5.78157V3.125H29.9062ZM3.09375 21.875V9.79154C4.57063 10.9798 6.66503 12.6471 9.85733 15.1721C11.2661 16.2923 13.7332 18.765 16.5 18.7499C19.2532 18.765 21.6891 16.3281 23.1421 15.1727C26.3343 12.6477 28.4293 10.9799 29.9062 9.7916V21.875H3.09375Z" fill="#944646"/>
</svg>
