<svg width="22" height="32" viewBox="0 0 22 32" fill="none" xmlns="http://www.w3.org/2000/svg">
<path d="M18.5363 15.2115L18.5359 15.2121L10.662 28.8557L2.78705 15.2111L2.78671 15.2105C1.98776 13.8306 1.565 12.258 1.565 10.663C1.565 5.64721 5.64707 1.566 10.663 1.566C15.6778 1.566 19.759 5.64711 19.759 10.663C19.759 12.2578 19.3363 13.8295 18.5363 15.2115ZM10.2289 30.1059L10.662 30.8563L11.0951 30.1059L19.4017 15.7125C19.4018 15.7124 19.4018 15.7124 19.4018 15.7123C20.2897 14.1784 20.759 12.4341 20.759 10.663C20.759 5.09489 16.2302 0.566 10.663 0.566C5.09493 0.566 0.565 5.09479 0.565 10.663C0.565 12.434 1.03421 14.1793 1.92119 15.7114C1.92123 15.7114 1.92126 15.7115 1.92129 15.7115L10.2289 30.1059ZM1.86506 15.7451L1.86471 15.7445C0.998209 14.2479 0.5 12.5169 0.5 10.663C0.5 5.05111 5.05017 0.5 10.663 0.5C16.2747 0.5 20.824 5.05102 20.824 10.663C20.824 12.5169 20.3258 14.2479 19.4593 15.7445L19.4589 15.7451L10.662 30.9887L1.86506 15.7451ZM10.663 14.894C12.9972 14.894 14.894 12.9961 14.894 10.663C14.894 8.32986 12.9961 6.432 10.663 6.432C8.32895 6.432 6.431 8.32977 6.431 10.663C6.431 12.9962 8.32895 14.894 10.663 14.894Z" fill="white" stroke="white"/>
</svg>
