<svg width="22" height="32" viewBox="0 0 22 32" fill="none" xmlns="http://www.w3.org/2000/svg">
<path fill-rule="evenodd" clip-rule="evenodd" d="M10.663 1.066C15.954 1.066 20.259 5.371 20.259 10.663C20.259 12.346 19.813 14.004 18.969 15.462L10.662 29.856L2.354 15.461C1.511 14.005 1.065 12.346 1.065 10.663C1.065 5.371 5.371 1.066 10.663 1.066ZM14.394 10.663C14.394 12.72 12.721 14.394 10.663 14.394C8.605 14.394 6.931 12.72 6.931 10.663C6.931 8.606 8.605 6.932 10.663 6.932C12.72 6.932 14.394 8.606 14.394 10.663Z" fill="white"/>
<path fill-rule="evenodd" clip-rule="evenodd" d="M20.259 10.663C20.259 5.371 15.954 1.066 10.663 1.066C5.371 1.066 1.065 5.371 1.065 10.663C1.065 12.346 1.511 14.005 2.354 15.461L10.662 29.856L18.969 15.462C19.813 14.004 20.259 12.346 20.259 10.663ZM0 10.663C0 4.775 4.774 0 10.663 0C16.551 0 21.324 4.775 21.324 10.663C21.324 12.608 20.801 14.425 19.892 15.995L10.662 31.989L1.432 15.995C0.523 14.425 0 12.608 0 10.663Z" fill="white"/>
</svg>
