<svg width="29" height="29" viewBox="0 0 29 29" fill="none" xmlns="http://www.w3.org/2000/svg">
<path d="M27.9465 1.39394L22.056 0.0345961C21.416 -0.112666 20.759 0.221506 20.4984 0.821884L17.7797 7.1655C17.5418 7.72057 17.7004 8.37192 18.1705 8.7514L21.6029 11.5607C19.5639 15.905 16.0012 19.5186 11.5664 21.5972L8.75705 18.1649C8.3719 17.6948 7.72621 17.5362 7.17115 17.7741L0.827526 20.4928C0.221484 20.759 -0.112689 21.416 0.0345736 22.056L1.39392 27.9465C1.53552 28.5582 2.07926 29 2.71928 29C17.2247 29 29 17.2473 29 2.71931C29 2.08494 28.5639 1.53554 27.9465 1.39394Z" fill="white"/>
</svg>
