<svg width="31" height="31" viewBox="0 0 31 31" fill="none" xmlns="http://www.w3.org/2000/svg">
<path fill-rule="evenodd" clip-rule="evenodd" d="M15.5 0C12.4344 0 9.43763 0.90904 6.88867 2.6122C4.33971 4.31536 2.35303 6.73613 1.17987 9.56839C0.00671387 12.4006 -0.300235 15.5172 0.297836 18.5239C0.895907 21.5306 2.37214 24.2925 4.53986 26.4602C6.70757 28.6279 9.46939 30.1041 12.4761 30.7022C15.4828 31.3002 18.5993 30.9933 21.4316 29.8201C24.2639 28.647 26.6846 26.6603 28.3878 24.1113C30.0909 21.5624 31 18.5656 31 15.5C30.9953 11.3906 29.3608 7.45078 26.455 4.54497C23.5492 1.63917 19.6094 0.00466186 15.5 0ZM15.5 28.8864C12.8524 28.8864 10.2643 28.1013 8.06293 26.6304C5.86155 25.1595 4.1458 23.0688 3.13262 20.6227C2.11943 18.1767 1.85434 15.4852 2.37086 12.8885C2.88737 10.2918 4.1623 7.90651 6.03441 6.03439C7.90653 4.16227 10.2917 2.88739 12.8884 2.37087C15.4851 1.85436 18.1767 2.11943 20.6227 3.13261C23.0688 4.1458 25.1594 5.86159 26.6303 8.06297C28.1013 10.2643 28.8864 12.8524 28.8864 15.5C28.8864 19.0503 27.476 22.4552 24.9656 24.9656C22.4552 27.476 19.0503 28.8864 15.5 28.8864ZM21.9545 15.3068H15.6136V7.55682C15.6136 7.27653 15.5023 7.00772 15.3041 6.80953C15.1059 6.61134 14.8371 6.5 14.5568 6.5C14.2765 6.5 14.0077 6.61134 13.8095 6.80953C13.6113 7.00772 13.5 7.27653 13.5 7.55682V17.4205H21.9545C22.2348 17.4205 22.5036 17.3091 22.7018 17.1109C22.9 16.9127 23.0114 16.6439 23.0114 16.3636C23.0114 16.0834 22.9 15.8145 22.7018 15.6163C22.5036 15.4182 22.2348 15.3068 21.9545 15.3068Z" fill="white"/>
</svg>
