<svg width="13" height="24" viewBox="0 0 13 24" fill="none" xmlns="http://www.w3.org/2000/svg">
<path d="M8.01062 13.5V23.5H4.31516V13.5V13H3.81516H0.5V9.65656H3.81516H4.31516V9.15656V5.84625C4.31516 4.06307 4.84425 2.74049 5.71962 1.86428C6.5955 0.987579 7.87573 0.5 9.49078 0.5C10.2861 0.5 11.106 0.571194 11.7315 0.643419C11.9741 0.671422 12.1859 0.699412 12.3541 0.72312V3.49141H10.9594C9.9175 3.49141 9.15227 3.81914 8.65684 4.39202C8.17313 4.95137 8.01062 5.67114 8.01062 6.33797V9.15656V9.65656H8.51062H12.0957L11.5826 13H8.51062H8.01062V13.5Z" fill="white" stroke="white"/>
</svg>
