<svg width="66" height="88" viewBox="0 0 66 88" fill="none" xmlns="http://www.w3.org/2000/svg">
<path d="M10.834 88V71.408H0.22V63.478H10.834V52.62H0.22V43.348H10.834V0.891994H33.77C44.4247 0.891994 52.314 3.04733 57.438 7.358C62.6433 11.6687 65.246 17.9313 65.246 26.146C65.246 34.442 62.44 40.9487 56.828 45.666C51.216 50.302 42.9607 52.62 32.062 52.62H21.814V63.478H41.944V71.408H21.814V88H10.834ZM30.476 43.348C37.8773 43.348 43.6113 42.128 47.678 39.688C51.826 37.248 53.9 32.856 53.9 26.512C53.9 20.9813 52.192 16.874 48.776 14.19C45.36 11.506 40.0327 10.164 32.794 10.164H21.814V43.348H30.476Z" fill="#801818"/>
</svg>
