<svg width="15" height="16" viewBox="0 0 15 16" fill="none" xmlns="http://www.w3.org/2000/svg">
<path d="M10.9186 11.0374L10.575 11.3882L10.9194 11.7381L14.4728 15.3487L14.8292 14.998L14.4745 15.3504C14.4822 15.3581 14.4886 15.3676 14.493 15.3784C14.4975 15.3893 14.5 15.4013 14.5 15.4135C14.5 15.4257 14.4977 15.4376 14.4933 15.4486C14.4888 15.4595 14.4825 15.4691 14.4749 15.4768C14.4672 15.4846 14.4586 15.4904 14.4496 15.4942C14.4405 15.4981 14.431 15.5 14.4216 15.5C14.4122 15.5 14.4027 15.4982 14.3936 15.4944C14.3847 15.4907 14.3761 15.4851 14.3686 15.4777C14.3685 15.4775 14.3684 15.4774 14.3682 15.4773L10.746 11.7946L10.4468 11.4904L10.0994 11.738C8.81541 12.653 7.23353 13.0302 5.6831 12.7923C4.13258 12.5544 2.73086 11.7192 1.77099 10.4587C0.810963 9.19803 0.367514 7.6095 0.534505 6.02435C0.701491 4.43926 1.46573 2.98208 2.66586 1.95578C3.86578 0.929664 5.40907 0.413083 6.97406 0.511974C8.53909 0.610867 10.0075 1.31783 11.0727 2.48758C12.1381 3.65753 12.7178 5.20009 12.689 6.79401C12.6602 8.38792 12.0254 9.90787 10.9186 11.0374ZM6.6317 12.688H6.63242C7.79694 12.688 8.93478 12.3384 9.90224 11.6841C10.8696 11.0298 11.623 10.1005 12.0681 9.01431C12.5132 7.92813 12.6305 6.7331 12.4055 5.57979C12.1805 4.42645 11.6229 3.36566 10.8023 2.53171C9.9817 1.69771 8.9347 1.12797 7.7932 0.895542C6.65166 0.663109 5.46781 0.778675 4.39143 1.22727C3.31511 1.67583 2.39518 2.43696 1.74708 3.4136C1.09903 4.39017 0.751572 5.53871 0.747852 6.7142L1.24785 6.71578L0.74785 6.7149C0.746476 7.49719 0.897242 8.27226 1.1917 8.99585C1.48616 9.71945 1.91862 10.3776 2.4647 10.9326C3.01079 11.4876 3.65981 11.9285 4.37487 12.2298C5.08994 12.5311 5.85684 12.6869 6.6317 12.688Z" fill="white" stroke="white"/>
</svg>
