<svg width="31" height="31" viewBox="0 0 31 31" fill="none" xmlns="http://www.w3.org/2000/svg">
<path d="M15.1136 15.3068V15.8068H15.6136H21.9545C22.1022 15.8068 22.2439 15.8655 22.3483 15.9699C22.4527 16.0743 22.5114 16.2159 22.5114 16.3636C22.5114 16.5113 22.4527 16.653 22.3483 16.7574C22.2439 16.8618 22.1022 16.9205 21.9545 16.9205H14V7.55682C14 7.40913 14.0587 7.2675 14.1631 7.16308C14.2675 7.05867 14.4091 7 14.5568 7C14.7045 7 14.8461 7.05867 14.9506 7.16308C15.055 7.2675 15.1136 7.40913 15.1136 7.55682V15.3068ZM7.16646 3.02794C9.63312 1.37977 12.5331 0.500055 15.4997 0.5C19.4766 0.504588 23.2893 2.08642 26.1015 4.89853C28.9136 7.7107 30.4955 11.5236 30.5 15.5006C30.4999 18.4671 29.6202 21.367 27.972 23.8335C26.3238 26.3003 23.9811 28.2229 21.2403 29.3582C18.4994 30.4935 15.4834 30.7906 12.5736 30.2118C9.66393 29.633 6.9912 28.2044 4.89341 26.1066C2.79562 24.0089 1.36701 21.3361 0.788228 18.4264C0.20945 15.5166 0.506498 12.5006 1.64181 9.75973C2.77713 7.01884 4.69972 4.67616 7.16646 3.02794ZM7.78514 27.0461C10.0687 28.572 12.7535 29.3864 15.5 29.3864C19.1829 29.3864 22.7149 27.9234 25.3191 25.3192C27.9233 22.715 29.3864 19.1829 29.3864 15.5C29.3864 12.7535 28.5719 10.0688 27.0461 7.78518C25.5202 5.50159 23.3515 3.7217 20.8141 2.67067C18.2767 1.61965 15.4846 1.34467 12.7909 1.88048C10.0972 2.41629 7.62291 3.73879 5.68086 5.68084C3.73882 7.62288 2.41627 10.0973 1.88046 12.7909C1.34466 15.4846 1.61965 18.2767 2.67068 20.8141C3.7217 23.3515 5.50154 25.5203 7.78514 27.0461Z" fill="white" stroke="white"/>
</svg>
