<svg width="45" height="45" viewBox="0 0 45 45" fill="none" xmlns="http://www.w3.org/2000/svg">
<path d="M30.6006 28.7359L30.2992 29.0875L30.6266 29.4149L44.2931 43.0814L43.0836 44.2926L29.4176 30.6266L29.0903 30.2993L28.7388 30.6005C25.7405 33.1693 21.8597 34.7325 17.6162 34.7325C8.17906 34.7325 0.5 27.0534 0.5 17.6162C0.5 13.0437 2.2769 8.74527 5.5109 5.5139L5.51105 5.51376C8.74538 2.27942 13.0412 0.5 17.6162 0.5C27.0534 0.5 34.7325 8.17906 34.7325 17.6162C34.7325 21.8624 33.1693 25.7404 30.6006 28.7359ZM6.72021 6.71987L6.72004 6.72004C3.8102 9.62989 2.21019 13.4999 2.21019 17.6162C2.21019 26.1124 9.12009 33.0223 17.6162 33.0223C26.1124 33.0223 33.0223 26.1124 33.0223 17.6162C33.0223 9.12009 26.1124 2.21019 17.6162 2.21019C13.4997 2.21019 9.62984 3.81305 6.72021 6.71987ZM18.4713 16.2611V16.7611H18.9713H23.8917V18.4713H18.9713H18.4713V18.9713V23.8917H16.7611V18.9713V18.4713H16.2611H11.3408V16.7611H16.2611H16.7611V16.2611V11.3408H18.4713V16.2611Z" fill="white" stroke="white"/>
</svg>
